<svg width="24" height="48" viewBox="0 0 24 48" fill="none" xmlns="http://www.w3.org/2000/svg">
<path d="M15.6008 46.2908C16.356 45.6621 16.1382 44.8806 16.0702 44.205C15.6799 40.3308 15.4224 36.4314 14.7825 32.5968C13.4755 24.7638 11.9532 16.9666 10.5228 9.15403C10.4068 8.52086 10.3146 7.88337 10.3377 7.18819C12.059 9.56646 13.2731 12.2731 15.0146 14.6089C15.2095 14.5182 15.4044 14.4275 15.5993 14.3367C15.5014 13.8225 15.5089 13.2574 15.2891 12.8021C13.5314 9.16217 11.7613 5.52739 9.92725 1.92562C9.24711 0.590049 8.26936 0.540641 7.41168 1.80073C6.75574 2.76443 6.22579 3.83733 5.78842 4.9216C4.85395 7.23823 3.98289 9.58203 3.15013 11.9374C2.5959 13.5051 2.64524 13.6609 3.23775 15.3622C5.60217 12.8954 5.71166 9.53735 7.39038 6.71715C7.60055 7.27367 7.82691 7.68449 7.91079 8.12261C10.2069 20.1112 12.4845 32.1034 14.7819 44.0918C14.9224 44.8246 14.787 45.6962 15.6008 46.2908Z" fill="black"/>
</svg>
