<svg width="48" height="48" viewBox="0 0 48 48" fill="none" xmlns="http://www.w3.org/2000/svg">
<g clip-path="url(#clip0_1371_1553)">
<path d="M14.4307 28.1279C15.1489 28.1279 15.8116 28.3105 16.418 28.6768C17.0243 29.043 17.5092 29.5321 17.873 30.1426C18.2368 30.753 18.4189 31.4248 18.4189 32.1572C18.4189 32.8802 18.2368 33.5469 17.873 34.1572C17.5093 34.7676 17.0242 35.2558 16.418 35.6221C15.8116 35.9884 15.149 36.1719 14.4307 36.1719C13.7125 36.1718 13.0506 35.9882 12.4443 35.6221C11.838 35.2558 11.3521 34.7677 10.9883 34.1572C10.6246 33.5469 10.4434 32.8802 10.4434 32.1572C10.4434 31.4248 10.6246 30.7529 10.9883 30.1426C11.3521 29.5321 11.838 29.043 12.4443 28.6768C13.0505 28.3107 13.7126 28.128 14.4307 28.1279Z" fill="black"/>
<path d="M16.8096 12.8564C17.0055 12.8564 17.1736 12.9222 17.3135 13.0537C17.4627 13.1851 17.537 13.3402 17.5371 13.5186C17.5371 13.7064 17.4767 13.8995 17.3555 14.0967L14.4307 18.7168C14.2628 18.9798 14.0246 19.1113 13.7168 19.1113C13.5677 19.1113 13.437 19.0784 13.3252 19.0127C13.2227 18.9376 13.1201 18.8388 13.0176 18.7168L11.4502 16.8154C11.3289 16.6652 11.2686 16.4816 11.2686 16.2656C11.2686 16.0591 11.3343 15.8859 11.4648 15.7451C11.6048 15.6043 11.7676 15.5332 11.9541 15.5332C12.094 15.5332 12.2104 15.5618 12.3037 15.6182C12.4063 15.6745 12.5044 15.7636 12.5977 15.8857L13.6895 17.2803L16.1797 13.251C16.3476 12.988 16.5577 12.8564 16.8096 12.8564Z" fill="black"/>
<path fill-rule="evenodd" clip-rule="evenodd" d="M28.5254 1.85537e-10C35.342 1.85537e-10 38.7509 -0.000434279 41.3545 1.32617C43.6446 2.49305 45.506 4.35546 46.6729 6.64551C47.9995 9.24912 48 12.658 48 19.4746V28.5254C48 35.342 47.9995 38.7509 46.6729 41.3545C45.506 43.6444 43.6444 45.506 41.3545 46.6729C38.7509 47.9995 35.342 48 28.5254 48H19.4746C12.658 48 9.24912 47.9995 6.64551 46.6729C4.35546 45.506 2.49305 43.6446 1.32617 41.3545C-0.000434279 38.7509 1.86446e-10 35.342 1.86446e-10 28.5254V19.4746C1.86446e-10 12.658 -0.000405788 9.24911 1.32617 6.64551C2.49309 4.35531 4.35531 2.49309 6.64551 1.32617C9.24911 -0.000404 12.658 1.85537e-10 19.4746 1.85537e-10H28.5254ZM14.4307 26.0713C13.33 26.0713 12.3223 26.3483 11.4082 26.9023C10.4942 27.4564 9.76223 28.194 9.21191 29.1143C8.67093 30.0346 8.40039 31.0491 8.40039 32.1572C8.40046 33.2559 8.67531 34.2653 9.22559 35.1855C9.77596 36.1059 10.5087 36.8433 11.4229 37.3975C12.3369 37.9514 13.3394 38.2285 14.4307 38.2285C15.5314 38.2285 16.5346 37.9516 17.4395 37.3975C18.3536 36.8434 19.0854 36.1059 19.6357 35.1855C20.186 34.2653 20.4618 33.2559 20.4619 32.1572C20.4619 31.0396 20.1861 30.02 19.6357 29.0996C19.0854 28.1794 18.3534 27.447 17.4395 26.9023C16.5346 26.3482 15.5314 26.0713 14.4307 26.0713ZM24.7158 31.0156C24.3988 31.0156 24.1281 31.1284 23.9043 31.3535C23.6897 31.5695 23.582 31.8379 23.582 32.1572C23.5821 32.467 23.6898 32.7347 23.9043 32.96C24.1281 33.1758 24.3988 33.2842 24.7158 33.2842H38.624C38.9411 33.2842 39.2117 33.1759 39.4355 32.96C39.6593 32.7347 39.7714 32.467 39.7715 32.1572C39.7715 31.8379 39.6594 31.5695 39.4355 31.3535C39.2117 31.1282 38.9411 31.0156 38.624 31.0156H24.7158ZM14.4307 9.77148C13.33 9.77151 12.3223 10.0485 11.4082 10.6025C10.4941 11.1473 9.76226 11.8804 9.21191 12.8008C8.67103 13.721 8.40047 14.7348 8.40039 15.8428C8.40039 16.9509 8.67534 17.9654 9.22559 18.8857C9.77596 19.8061 10.5087 20.5435 11.4229 21.0977C12.3369 21.6517 13.3394 21.9287 14.4307 21.9287C15.5314 21.9287 16.5346 21.6518 17.4395 21.0977C18.3535 20.5436 19.0854 19.806 19.6357 18.8857C20.186 17.9654 20.4619 16.9509 20.4619 15.8428C20.4618 14.7348 20.186 13.721 19.6357 12.8008C19.0854 11.8804 18.3536 11.1473 17.4395 10.6025C16.5346 10.0484 15.5314 9.77148 14.4307 9.77148ZM24.7158 14.7305C24.3987 14.7305 24.1282 14.8387 23.9043 15.0547C23.6897 15.2707 23.582 15.5381 23.582 15.8574C23.5821 16.1767 23.6898 16.4494 23.9043 16.6748C24.1281 16.8905 24.3989 16.998 24.7158 16.998H38.624C38.9411 16.998 39.2117 16.8907 39.4355 16.6748C39.6594 16.4494 39.7715 16.1767 39.7715 15.8574C39.7715 15.5382 39.6593 15.2707 39.4355 15.0547C39.2117 14.8387 38.9412 14.7305 38.624 14.7305H24.7158Z" fill="black"/>
</g>
<defs>
<clipPath id="clip0_1371_1553">
<rect width="48" height="48" fill="white"/>
</clipPath>
</defs>
</svg>
