<svg width="306" height="305" viewBox="0 0 306 305" fill="none" xmlns="http://www.w3.org/2000/svg">
<g clip-path="url(#clip0_1370_1673)">
<path d="M200.251 18.4394C239.547 24.5184 259.195 27.5578 273.021 37.5272C285.183 46.2966 294.256 58.6912 298.941 72.9344C304.267 89.1266 301.227 108.775 295.148 148.071L287.076 200.251C280.997 239.547 277.957 259.195 267.988 273.021C259.218 285.183 246.824 294.256 232.581 298.941C216.388 304.267 196.74 301.227 157.444 295.148L105.264 287.076C65.9681 280.997 46.3199 277.957 32.4938 267.988C20.332 259.218 11.2584 246.824 6.57386 232.581C1.24823 216.388 4.28799 196.74 10.367 157.444L18.4392 105.264C24.5183 65.9682 27.5576 46.32 37.5271 32.4939C46.2965 20.3321 58.6911 11.2586 72.9343 6.57397C89.1265 1.24835 108.775 4.2881 148.071 10.3672L200.251 18.4394ZM95.7465 156.162C89.4009 155.18 83.3458 155.879 77.5816 158.258C71.8175 160.637 66.9388 164.235 62.9453 169.05C59.0056 173.873 56.5413 179.479 55.5529 185.867C54.573 192.202 55.2585 198.268 57.6105 204.065C59.9625 209.861 63.5271 214.764 68.3029 218.773C73.0788 222.783 78.6125 225.275 84.9042 226.248C91.2497 227.23 97.2776 226.527 102.988 224.139C108.752 221.76 113.632 218.164 117.625 213.349C121.619 208.534 124.105 202.958 125.085 196.624C126.082 190.181 125.405 184.061 123.053 178.264C120.701 172.468 117.132 167.592 112.348 163.636C107.626 159.635 102.092 157.143 95.7465 156.162ZM93.9122 168.019C98.053 168.659 101.708 170.306 104.877 172.958C108.045 175.61 110.406 178.859 111.959 182.702C113.511 186.546 113.962 190.579 113.308 194.802C112.663 198.971 111.02 202.653 108.378 205.848C105.736 209.042 102.505 211.425 98.683 212.996C94.8609 214.566 90.8792 215.032 86.7385 214.391C82.5977 213.75 78.9427 212.104 75.7739 209.452C72.6054 206.799 70.2447 203.552 68.6919 199.708C67.139 195.865 66.6849 191.858 67.3298 187.689C67.9831 183.466 69.6309 179.758 72.2725 176.563C74.9141 173.368 78.1457 170.985 81.9676 169.414C85.7897 167.843 89.7715 167.378 93.9122 168.019ZM150.625 193.839C148.796 193.556 147.136 193.965 145.644 195.065C144.215 196.119 143.358 197.566 143.073 199.406C142.797 201.193 143.176 202.832 144.212 204.323C145.31 205.768 146.774 206.631 148.602 206.914L228.782 219.318C230.61 219.601 232.266 219.22 233.75 218.174C235.241 217.075 236.125 215.631 236.402 213.844C236.686 212.004 236.28 210.361 235.182 208.916C234.092 207.417 232.633 206.526 230.805 206.243L150.625 193.839ZM110.282 62.1994C103.937 61.2177 97.8817 61.9165 92.1175 64.2956C86.3619 66.6205 81.4873 70.1903 77.4938 75.0052C73.554 79.8285 71.0897 85.435 70.1013 91.8237C69.1131 98.2121 69.7947 104.305 72.1465 110.101C74.4985 115.898 78.0629 120.801 82.8388 124.811C87.6147 128.821 93.1484 131.312 99.4401 132.286C105.786 133.267 111.814 132.564 117.524 130.177C123.288 127.798 128.168 124.2 132.161 119.385C136.155 114.57 138.645 108.969 139.634 102.58C140.622 96.1915 139.941 90.0984 137.589 84.3017C135.237 78.5051 131.668 73.6293 126.884 69.6739C122.162 65.6727 116.628 63.181 110.282 62.1994ZM121.244 82.1062C122.373 82.2809 123.282 82.8096 123.972 83.6923C124.715 84.5834 125.007 85.5433 124.848 86.572C124.68 87.6548 124.159 88.7106 123.284 89.7394L102.304 113.77C101.102 115.136 99.6131 115.681 97.8386 115.407C96.9784 115.274 96.2548 114.968 95.6682 114.489C95.1438 113.964 94.6399 113.304 94.1573 112.509L86.8193 100.147C86.2543 99.1729 86.0676 98.0628 86.2602 96.8176C86.4446 95.6267 86.9767 94.6837 87.8551 93.9881C88.7874 93.3009 89.7909 93.0405 90.8664 93.2069C91.673 93.3317 92.3207 93.5973 92.8082 94.0053C93.3494 94.4217 93.8343 95.0236 94.2632 95.8105L99.3107 104.824L117.262 83.8185C118.465 82.4524 119.792 81.8817 121.244 82.1062ZM165.148 99.9579C163.32 99.6751 161.664 100.056 160.18 101.102C158.751 102.155 157.894 103.603 157.609 105.444C157.324 107.285 157.7 108.951 158.735 110.442C159.833 111.886 161.297 112.75 163.125 113.033L243.305 125.437C245.134 125.719 246.79 125.338 248.273 124.293C249.765 123.193 250.653 121.723 250.938 119.882C251.222 118.041 250.816 116.398 249.718 114.953C248.62 113.508 247.156 112.644 245.328 112.362L165.148 99.9579Z" fill="#D9D9D9"/>
</g>
<defs>
<clipPath id="clip0_1370_1673">
<rect width="306" height="305" fill="white"/>
</clipPath>
</defs>
</svg>
