<svg width="48" height="48" viewBox="0 0 48 48" fill="none" xmlns="http://www.w3.org/2000/svg">
<path d="M38.8846 21.6792L22.1719 38.3697C21.7814 38.7595 21.2519 38.9784 20.6998 38.9784C20.1477 38.9784 19.6182 38.7595 19.2276 38.3697L9.90547 29.0105C9.51561 28.6206 9.29663 28.0921 9.29663 27.541C9.29663 26.99 9.51561 26.4614 9.90547 26.0715L12.5087 23.4717C12.899 23.0836 13.4274 22.8656 13.9782 22.8656C14.5291 22.8656 15.0574 23.0836 15.4477 23.4717L20.7518 28.6089L33.3463 16.1858C33.7366 15.7973 34.2653 15.5791 34.8164 15.5791C35.3676 15.5791 35.8962 15.7973 36.2866 16.1858L38.8833 18.7258C39.0786 18.9191 39.2336 19.149 39.3395 19.4024C39.4453 19.6558 39.4999 19.9277 39.5 20.2022C39.5001 20.4768 39.4458 20.7487 39.3402 21.0021C39.2346 21.2556 39.0797 21.4857 38.8846 21.6792Z" fill="black" fill-opacity="0.6"/>
<g filter="url(#filter0_di_1364_1541)">
<path d="M38.8846 15.228L22.1719 31.9186C21.7814 32.3083 21.2519 32.5272 20.6998 32.5272C20.1477 32.5272 19.6182 32.3083 19.2276 31.9186L9.90547 22.5594C9.51561 22.1694 9.29663 21.6409 9.29663 21.0898C9.29663 20.5388 9.51561 20.0103 9.90547 19.6203L12.5087 17.0205C12.899 16.6324 13.4274 16.4145 13.9782 16.4145C14.5291 16.4145 15.0574 16.6324 15.4477 17.0205L20.7518 22.1577L33.3463 9.73467C33.7366 9.34611 34.2653 9.12793 34.8164 9.12793C35.3676 9.12793 35.8962 9.34611 36.2866 9.73467L38.8833 12.2746C39.0786 12.4679 39.2336 12.6979 39.3395 12.9513C39.4453 13.2047 39.4999 13.4765 39.5 13.7511C39.5001 14.0256 39.4458 14.2975 39.3402 14.551C39.2346 14.8045 39.0797 15.0346 38.8846 15.228Z" fill="white"/>
</g>
<defs>
<filter id="filter0_di_1364_1541" x="5.29663" y="8.12793" width="38.2034" height="32.3994" filterUnits="userSpaceOnUse" color-interpolation-filters="sRGB">
<feFlood flood-opacity="0" result="BackgroundImageFix"/>
<feColorMatrix in="SourceAlpha" type="matrix" values="0 0 0 0 0 0 0 0 0 0 0 0 0 0 0 0 0 0 127 0" result="hardAlpha"/>
<feOffset dy="4"/>
<feGaussianBlur stdDeviation="2"/>
<feComposite in2="hardAlpha" operator="out"/>
<feColorMatrix type="matrix" values="0 0 0 0 1 0 0 0 0 1 0 0 0 0 1 0 0 0 0.25 0"/>
<feBlend mode="normal" in2="BackgroundImageFix" result="effect1_dropShadow_1364_1541"/>
<feBlend mode="normal" in="SourceGraphic" in2="effect1_dropShadow_1364_1541" result="shape"/>
<feColorMatrix in="SourceAlpha" type="matrix" values="0 0 0 0 0 0 0 0 0 0 0 0 0 0 0 0 0 0 127 0" result="hardAlpha"/>
<feOffset dy="-1"/>
<feGaussianBlur stdDeviation="0.5"/>
<feComposite in2="hardAlpha" operator="arithmetic" k2="-1" k3="1"/>
<feColorMatrix type="matrix" values="0 0 0 0 0 0 0 0 0 0 0 0 0 0 0 0 0 0 0.25 0"/>
<feBlend mode="normal" in2="shape" result="effect2_innerShadow_1364_1541"/>
</filter>
</defs>
</svg>
