<svg width="64" height="64" viewBox="0 0 64 64" fill="none" xmlns="http://www.w3.org/2000/svg">
<path d="M50.8198 16.3281C52.212 16.3283 53.5462 16.8796 54.5337 17.8604L54.5347 17.8594L59.0425 22.2842L59.0503 22.291H59.0493C59.5438 22.7819 59.9367 23.3656 60.2046 24.0088C60.4724 24.652 60.6105 25.3423 60.6108 26.0391C60.6111 26.736 60.4738 27.4267 60.2065 28.0703C59.94 28.712 59.5482 29.2937 59.0562 29.7842L59.0571 29.7852L30.0396 58.8574C29.0506 59.8476 27.7086 60.4043 26.3091 60.4043C24.9095 60.4043 23.5676 59.8476 22.5786 58.8574L22.5757 58.8545L6.39307 42.5537L6.39209 42.5547C5.40489 41.5641 4.85111 40.2217 4.85107 38.8232C4.85107 37.4247 5.40485 36.0824 6.39209 35.0918L6.39307 35.0908L10.9126 30.5625L10.9155 30.5605C11.904 29.5744 13.2429 29.0195 14.6392 29.0195C16.0279 29.0196 17.3594 29.5686 18.3462 30.5449H18.3472L26.3882 38.3584L47.0991 17.8643V17.8652C48.0872 16.8811 49.425 16.3281 50.8198 16.3281Z" stroke="black" stroke-width="3.31905"/>
<path d="M61.7692 14.455L28.3438 47.8361C27.5627 48.6156 26.5037 49.0535 25.3995 49.0535C24.2953 49.0535 23.2363 48.6156 22.4553 47.8361L3.81095 29.1177C3.03121 28.3379 2.59326 27.2808 2.59326 26.1787C2.59326 25.0766 3.03121 24.0196 3.81095 23.2397L9.0174 18.0401C9.79802 17.2638 10.8548 16.8279 11.9565 16.8279C13.0581 16.8279 14.1149 17.2638 14.8955 18.0401L25.5037 28.3144L50.6925 3.46836C51.4732 2.69124 52.5306 2.25488 53.6329 2.25488C54.7351 2.25488 55.7925 2.69124 56.5732 3.46836L61.7666 8.54832C62.1572 8.93484 62.4673 9.39477 62.679 9.90156C62.8906 10.4084 62.9998 10.952 63 11.5011C63.0002 12.0502 62.8916 12.594 62.6804 13.101C62.4691 13.608 62.1595 14.0681 61.7692 14.455Z" fill="black"/>
</svg>
