<svg width="48" height="48" viewBox="0 0 48 48" fill="none" xmlns="http://www.w3.org/2000/svg">
<g filter="url(#filter0_d_1371_1543)">
<path d="M18.4683 25.4346C18.8576 25.4948 19.2012 25.6496 19.499 25.8989C19.7969 26.1482 20.0188 26.4536 20.1648 26.8149C20.3108 27.1762 20.3531 27.5553 20.2917 27.9523C20.231 28.3442 20.0766 28.6903 19.8282 28.9906C19.5799 29.2909 19.2761 29.5149 18.9168 29.6626C18.5575 29.8102 18.1832 29.854 17.794 29.7937C17.4048 29.7335 17.0612 29.5787 16.7633 29.3294C16.4655 29.0801 16.2435 28.7748 16.0976 28.4135C15.9516 28.0522 15.9089 27.6756 15.9695 27.2837C16.0309 26.8867 16.1858 26.5381 16.4342 26.2377C16.6825 25.9374 16.9863 25.7134 17.3456 25.5658C17.7049 25.4181 18.0791 25.3744 18.4683 25.4346Z" fill="url(#paint0_linear_1371_1543)"/>
<path d="M21.0376 17.3586C21.1438 17.375 21.2293 17.4247 21.2941 17.5076C21.3639 17.5914 21.3914 17.6817 21.3764 17.7784C21.3607 17.8801 21.3117 17.9794 21.2294 18.0761L19.2573 20.3349C19.1442 20.4634 19.0043 20.5147 18.8375 20.4889C18.7566 20.4764 18.6886 20.4476 18.6335 20.4026C18.5841 20.3533 18.5368 20.2912 18.4914 20.2165L17.8016 19.0545C17.7485 18.9629 17.731 18.8585 17.7491 18.7415C17.7664 18.6295 17.8164 18.5409 17.899 18.4755C17.9866 18.4109 18.081 18.3864 18.1821 18.402C18.2579 18.4137 18.3187 18.4388 18.3645 18.4771C18.4154 18.5163 18.461 18.5728 18.5013 18.6468L18.9759 19.4941L20.6634 17.5195C20.7764 17.3911 20.9012 17.3374 21.0376 17.3586Z" fill="url(#paint1_linear_1371_1543)"/>
<path fill-rule="evenodd" clip-rule="evenodd" d="M28.4645 11.3737C32.1585 11.9451 34.0055 12.2308 35.3052 13.168C36.4484 13.9924 37.3013 15.1575 37.7417 16.4964C38.2423 18.0185 37.9566 19.8655 37.3852 23.5594L36.6263 28.4645C36.0549 32.1585 35.7692 34.0055 34.832 35.3052C34.0076 36.4484 32.8425 37.3013 31.5036 37.7417C29.9815 38.2423 28.1345 37.9566 24.4406 37.3852L19.5355 36.6263C15.8415 36.0549 13.9945 35.7692 12.6948 34.832C11.5516 34.0076 10.6987 32.8425 10.2583 31.5036C9.75768 29.9815 10.0434 28.1345 10.6148 24.4406L11.3737 19.5355C11.9451 15.8415 12.2308 13.9945 13.168 12.6948C13.9924 11.5516 15.1575 10.6987 16.4964 10.2583C18.0185 9.75768 19.8655 10.0434 23.5594 10.6148L28.4645 11.3737ZM18.6408 24.32C18.0443 24.2277 17.4751 24.2934 16.9333 24.5171C16.3914 24.7407 15.9328 25.0788 15.5574 25.5315C15.187 25.9849 14.9554 26.5119 14.8625 27.1124C14.7703 27.7079 14.8348 28.2781 15.0559 28.823C15.277 29.3679 15.612 29.8288 16.061 30.2057C16.5099 30.5826 17.0301 30.8168 17.6216 30.9083C18.2181 31.0006 18.7847 30.9345 19.3215 30.7101C19.8634 30.4865 20.322 30.1483 20.6975 29.6957C21.0729 29.2431 21.3066 28.719 21.3987 28.1236C21.4924 27.5179 21.4287 26.9427 21.2076 26.3978C20.9866 25.8529 20.6511 25.3945 20.2014 25.0226C19.7575 24.6465 19.2373 24.4123 18.6408 24.32ZM23.7995 27.8618C23.6276 27.8352 23.4716 27.8736 23.3314 27.977C23.197 28.0761 23.1164 28.2121 23.0897 28.3852C23.0637 28.5531 23.0994 28.7072 23.1968 28.8473C23.3 28.9831 23.4375 29.0643 23.6094 29.0909L31.1466 30.2569C31.3184 30.2835 31.4741 30.2476 31.6135 30.1494C31.7538 30.046 31.8369 29.9103 31.8628 29.7424C31.8896 29.5693 31.8514 29.4149 31.7482 29.2791C31.6457 29.1381 31.5086 29.0544 31.3367 29.0278L23.7995 27.8618ZM20.0072 15.4872C19.4107 15.395 18.8415 15.4606 18.2997 15.6843C17.7586 15.9028 17.3004 16.2384 16.925 16.6911C16.5546 17.1445 16.323 17.6715 16.2301 18.272C16.1372 18.8726 16.2012 19.4453 16.4223 19.9902C16.6434 20.5351 16.9785 20.996 17.4274 21.3729C17.8763 21.7499 18.3966 21.984 18.988 22.0755C19.5845 22.1678 20.1511 22.1018 20.6879 21.8773C21.2298 21.6537 21.6885 21.3156 22.0639 20.863C22.4393 20.4103 22.6734 19.8837 22.7663 19.2832C22.8592 18.6826 22.7952 18.1099 22.5741 17.565C22.353 17.0201 22.0175 16.5617 21.5678 16.1898C21.1239 15.8137 20.6037 15.5795 20.0072 15.4872ZM25.1648 19.0367C24.9929 19.0101 24.8373 19.0459 24.6978 19.1442C24.5635 19.2433 24.4829 19.3793 24.4561 19.5524C24.4293 19.7254 24.4646 19.882 24.562 20.0221C24.6652 20.158 24.8028 20.2392 24.9746 20.2658L32.5118 21.4318C32.6837 21.4584 32.8394 21.4225 32.9788 21.3242C33.119 21.2208 33.2025 21.0826 33.2293 20.9096C33.256 20.7365 33.2178 20.5821 33.1146 20.4463C33.0114 20.3105 32.8738 20.2293 32.702 20.2027L25.1648 19.0367Z" fill="url(#paint2_linear_1371_1543)"/>
</g>
<defs>
<filter id="filter0_d_1371_1543" x="8" y="10" width="32" height="32" filterUnits="userSpaceOnUse" color-interpolation-filters="sRGB">
<feFlood flood-opacity="0" result="BackgroundImageFix"/>
<feColorMatrix in="SourceAlpha" type="matrix" values="0 0 0 0 0 0 0 0 0 0 0 0 0 0 0 0 0 0 127 0" result="hardAlpha"/>
<feOffset dy="2"/>
<feGaussianBlur stdDeviation="1"/>
<feComposite in2="hardAlpha" operator="out"/>
<feColorMatrix type="matrix" values="0 0 0 0 0 0 0 0 0 0 0 0 0 0 0 0 0 0 0.4 0"/>
<feBlend mode="normal" in2="BackgroundImageFix" result="effect1_dropShadow_1371_1543"/>
<feBlend mode="normal" in="SourceGraphic" in2="effect1_dropShadow_1371_1543" result="shape"/>
</filter>
<linearGradient id="paint0_linear_1371_1543" x1="26.1533" y1="10" x2="21.8467" y2="38" gradientUnits="userSpaceOnUse">
<stop stop-color="#FF9977"/>
<stop offset="0.775124" stop-color="#BC5336"/>
<stop offset="1" stop-color="#9B462E"/>
</linearGradient>
<linearGradient id="paint1_linear_1371_1543" x1="26.1533" y1="10" x2="21.8467" y2="38" gradientUnits="userSpaceOnUse">
<stop stop-color="#FF9977"/>
<stop offset="0.775124" stop-color="#BC5336"/>
<stop offset="1" stop-color="#9B462E"/>
</linearGradient>
<linearGradient id="paint2_linear_1371_1543" x1="26.1533" y1="10" x2="21.8467" y2="38" gradientUnits="userSpaceOnUse">
<stop stop-color="#FF9977"/>
<stop offset="0.775124" stop-color="#BC5336"/>
<stop offset="1" stop-color="#9B462E"/>
</linearGradient>
</defs>
</svg>
