<svg width="43" height="5" viewBox="0 0 43 5" fill="none" xmlns="http://www.w3.org/2000/svg">
<path d="M30.0798 0.282347C30.9879 -0.0312168 31.9038 -0.0845533 32.6218 0.127073C32.8983 0.208594 33.2172 0.348136 33.4343 0.623167C33.6976 0.956632 33.7039 1.3439 33.5945 1.65149C33.5007 1.91474 33.3244 2.12723 33.1775 2.27844C33.0204 2.44005 32.8359 2.59258 32.656 2.72864C32.653 2.73091 32.6493 2.73222 32.6463 2.73449C33.5671 2.69772 34.761 2.61228 36.1131 2.50793C38.0495 2.19818 39.3416 1.73436 40.3689 1.22278C40.7973 0.995845 41.0188 0.846921 41.1892 0.708128C41.5103 0.446472 41.9832 0.494444 42.2449 0.81555C42.5063 1.13653 42.4582 1.60856 42.1375 1.87024C41.8618 2.09486 41.544 2.2988 41.0535 2.55774L41.0379 2.56555C39.8615 3.15132 38.4155 3.66209 36.325 3.99426L36.2957 3.99914L36.2654 4.0011C34.6911 4.12269 33.2777 4.2271 32.2586 4.2511C31.7553 4.26294 31.3095 4.25622 30.9773 4.21399C30.8198 4.19395 30.6263 4.15887 30.4529 4.08117C30.3162 4.01995 29.8866 3.78468 29.9041 3.25305C29.9139 2.95748 30.084 2.76076 30.1248 2.71301C30.1933 2.63277 30.2709 2.56539 30.3318 2.51574C30.4566 2.41402 30.6157 2.30446 30.7673 2.20324C31.0942 1.98509 31.4444 1.76407 31.7507 1.53235C31.7628 1.5232 31.7742 1.51301 31.7859 1.50403C31.4552 1.48913 31.0353 1.53929 30.5691 1.70032C29.0458 2.22646 26.0235 3.56739 22.2791 3.99231C20.8154 4.1584 19.6076 4.28447 18.7527 4.32043C18.3315 4.33815 17.9512 4.33669 17.655 4.29407C17.5111 4.27334 17.3339 4.2358 17.1687 4.15442C17.0056 4.07402 16.7357 3.88762 16.658 3.52258C16.5988 3.2441 16.6972 2.99935 16.7254 2.92785C16.7701 2.814 16.83 2.69746 16.8816 2.60168C16.9995 2.38273 17.1075 2.2039 17.2097 1.98938C17.2332 1.94021 17.2524 1.89355 17.2703 1.85071C17.1357 1.8919 16.9737 1.94171 16.7781 2.00305C14 2.87439 11.7291 3.59245 10.158 3.95032C9.38628 4.12609 8.70114 4.2357 8.18336 4.20129C7.92831 4.18432 7.61201 4.12769 7.3445 3.93664C7.02692 3.70976 6.87619 3.36535 6.88063 3.00403L6.88649 2.90246C6.91189 2.67189 7.00754 2.48346 7.06325 2.38C7.12623 2.26307 7.23246 2.09399 7.28493 2.005C7.35021 1.89426 7.40537 1.78785 7.44899 1.68078C6.64855 1.99364 5.47488 2.5437 4.31325 3.12219C2.96489 3.79367 1.69206 4.47368 1.13258 4.80578C0.776463 5.01718 0.316728 4.9001 0.10524 4.54407C-0.106164 4.18794 0.0109108 3.72821 0.366958 3.51672C0.974062 3.15633 2.28619 2.45624 3.64528 1.77942C4.99544 1.10705 6.45235 0.426996 7.33473 0.12512L7.49684 0.0801981C7.82348 0.0106282 8.15873 0.0614067 8.43434 0.217893L8.56715 0.304807L8.6404 0.364378C8.98842 0.675332 9.06685 1.13629 9.03493 1.46594C8.98381 1.99336 8.78209 2.40392 8.61598 2.69446C8.90542 2.67028 9.30378 2.60614 9.82497 2.48742C11.3219 2.14644 13.5194 1.45359 16.3289 0.572386C16.8618 0.405228 17.2156 0.295659 17.4441 0.243284C17.5527 0.218404 17.7009 0.189154 17.8543 0.196409C18.0281 0.204702 18.2128 0.259602 18.3728 0.387815L18.4392 0.447386L18.5672 0.589964C18.8344 0.931469 18.8923 1.32818 18.8601 1.66809C18.8257 2.03116 18.6875 2.37423 18.5632 2.63489C18.5327 2.69887 18.4967 2.76181 18.4636 2.82532C18.5334 2.82382 18.6086 2.82577 18.6892 2.82239C19.4816 2.78907 20.6361 2.66935 22.1101 2.50207C25.6398 2.1015 28.4249 0.853933 30.0798 0.282347Z" fill="black"/>
</svg>
